<svg width="12" height="12" viewBox="0 0 12 12" fill="none" xmlns="http://www.w3.org/2000/svg">
<g clip-path="url(#clip0_923_36)">
<path d="M9.40872 1.48385L9.37715 1.45228C8.49315 0.536705 7.32502 0 5.99902 0C4.67303 0 3.5049 0.536705 2.6209 1.4207L2.58932 1.48385C1.73691 2.36784 1.2002 3.59912 1.2002 4.95668C1.2002 6.31423 1.7369 7.54554 2.58932 8.42952L2.6209 8.46109L5.99902 11.9971L9.37715 8.49266L9.40872 8.46109C10.2611 7.5771 10.7979 6.34582 10.7979 4.95669C10.7979 3.59912 10.2611 2.36784 9.40872 1.48385ZM5.99902 6.37739C5.08346 6.37739 4.32575 5.5881 4.32575 4.64098C4.32575 4.23055 4.45203 3.88327 4.67303 3.59912C4.98874 3.18869 5.46231 2.90456 5.99902 2.90456C6.91459 2.90456 7.6723 3.69383 7.6723 4.64097C7.6723 5.5881 6.91459 6.37739 5.99902 6.37739Z" fill="white"/>
</g>
<defs>
<clipPath id="clip0_923_36">
<rect width="11.9971" height="11.9971" fill="white"/>
</clipPath>
</defs>
</svg>
