<svg width="32" height="32" viewBox="0 0 32 32" fill="none" xmlns="http://www.w3.org/2000/svg">
<path d="M30 15.9123C30 15.8436 30 15.7654 29.9969 15.6748C29.9938 15.4217 29.9875 15.1373 29.9813 14.8342C29.9563 13.9623 29.9125 13.0936 29.8438 12.2748C29.75 11.1467 29.6125 10.2061 29.425 9.4998C29.025 8.00293 27.85 6.8248 26.3531 6.42168C25.4687 6.18418 23.7375 6.0373 21.3 5.94668C20.1406 5.90293 18.9 5.8748 17.6594 5.85918C17.225 5.85293 16.8219 5.8498 16.4594 5.84668H15.5406C15.1781 5.8498 14.775 5.85293 14.3406 5.85918C13.1 5.8748 11.8594 5.90293 10.7 5.94668C8.2625 6.04043 6.52812 6.1873 5.64687 6.42168C4.15312 6.82168 2.975 7.9998 2.575 9.4998C2.38438 10.2061 2.25 11.1467 2.15625 12.2748C2.0875 13.0936 2.04375 13.9623 2.01875 14.8342C2.00937 15.1373 2.00625 15.4217 2.00312 15.6748C2.00312 15.7654 2 15.8436 2 15.9123V16.0873C2 16.1561 2 16.2342 2.00312 16.3248C2.00625 16.5779 2.0125 16.8623 2.01875 17.1654C2.04375 18.0373 2.0875 18.9061 2.15625 19.7248C2.25 20.8529 2.3875 21.7936 2.575 22.4998C2.975 23.9967 4.15 25.1779 5.64687 25.5779C6.52812 25.8154 8.2625 25.9623 10.7 26.0529C11.8594 26.0967 13.1 26.1248 14.3406 26.1404C14.775 26.1467 15.1781 26.1498 15.5406 26.1529H16.4594C16.8219 26.1498 17.225 26.1467 17.6594 26.1404C18.9 26.1248 20.1406 26.0967 21.3 26.0529C23.7375 25.9592 25.4719 25.8123 26.3531 25.5779C27.85 25.1779 29.025 23.9998 29.425 22.4998C29.6156 21.7936 29.75 20.8529 29.8438 19.7248C29.9125 18.9061 29.9563 18.0373 29.9813 17.1654C29.9906 16.8623 29.9938 16.5779 29.9969 16.3248C29.9969 16.2342 30 16.1561 30 16.0873V15.9998V15.9123ZM27.75 16.0748C27.75 16.1404 27.75 16.2123 27.7469 16.2967C27.7438 16.5404 27.7375 16.8092 27.7313 17.0998C27.7094 17.9311 27.6656 18.7623 27.6 19.5342C27.5156 20.5404 27.3969 21.3654 27.25 21.9186C27.0563 22.6404 26.4875 23.2123 25.7687 23.4029C25.1125 23.5779 23.4594 23.7186 21.2125 23.8029C20.075 23.8467 18.85 23.8748 17.6281 23.8904C17.2 23.8967 16.8031 23.8998 16.4469 23.8998H15.5531C15.1969 23.8967 14.8 23.8936 14.3719 23.8904C13.15 23.8748 11.9281 23.8467 10.7875 23.8029C8.54063 23.7154 6.88437 23.5779 6.23125 23.4029C5.5125 23.2092 4.94375 22.6404 4.75 21.9186C4.60313 21.3654 4.48438 20.5404 4.4 19.5342C4.33438 18.7623 4.29375 17.9311 4.26875 17.0998C4.25938 16.8092 4.25625 16.5373 4.25313 16.2967C4.25313 16.2123 4.25 16.1373 4.25 16.0748V15.9811V15.9248C4.25 15.8592 4.25 15.7873 4.25313 15.7029C4.25625 15.4592 4.2625 15.1904 4.26875 14.8998C4.29063 14.0686 4.33438 13.2373 4.4 12.4654C4.48438 11.4592 4.60313 10.6342 4.75 10.0811C4.94375 9.35918 5.5125 8.7873 6.23125 8.59668C6.8875 8.42168 8.54063 8.28105 10.7875 8.19668C11.925 8.15293 13.15 8.1248 14.3719 8.10918C14.8 8.10293 15.1969 8.0998 15.5531 8.0998H16.4469C16.8031 8.10293 17.2 8.10605 17.6281 8.10918C18.85 8.1248 20.0719 8.15293 21.2125 8.19668C23.4594 8.28418 25.1156 8.42168 25.7687 8.59668C26.4875 8.79043 27.0563 9.35918 27.25 10.0811C27.3969 10.6342 27.5156 11.4592 27.6 12.4654C27.6656 13.2373 27.7063 14.0686 27.7313 14.8998C27.7406 15.1904 27.7438 15.4623 27.7469 15.7029C27.7469 15.7873 27.75 15.8623 27.75 15.9248V16.0748Z" fill="#555A6E"/>
<path d="M13.2188 18.4486C13.2188 19.2199 14.055 19.7009 14.7217 19.3129L18.9723 16.8395C19.6375 16.4524 19.6344 15.4904 18.9667 15.1077L14.7161 12.6709C14.0494 12.2887 13.2188 12.77 13.2188 13.5384V18.4486Z" fill="#555A6E"/>
</svg>
