<svg width="20" height="20" viewBox="0 0 20 20" fill="none" xmlns="http://www.w3.org/2000/svg">
<path d="M17.375 2.08301C18.1344 2.08301 18.75 2.69862 18.75 3.45801V15.1247C18.75 15.5565 18.2454 15.8165 17.8938 15.5657L14.8333 13.383V14.9997C14.8333 15.2988 14.5908 15.5413 14.2917 15.5413H5.7404L2.10068 18.0695C1.74843 18.3143 1.25 18.0536 1.25 17.6247V5.95801C1.25 5.65886 1.49251 5.41634 1.79167 5.41634H5.16583L5.16667 3.45801C5.16667 2.68459 5.79526 2.11476 6.54167 2.08301H17.375ZM13.75 6.49967H2.33333V16.5889L5.26172 14.5548C5.35245 14.4918 5.46027 14.458 5.57073 14.458H13.75V6.49967ZM17.375 3.16634H6.54167C6.38058 3.16634 6.25 3.29692 6.25 3.45801L6.24917 5.41634H14.2917C14.5908 5.41634 14.8333 5.65886 14.8333 5.95801V12.0522L17.6667 14.0731V3.45801C17.6667 3.29692 17.5361 3.16634 17.375 3.16634Z" fill="#8E919F"/>
</svg>
