<svg width="20" height="20" viewBox="0 0 20 20" fill="none" xmlns="http://www.w3.org/2000/svg">
<g clip-path="url(#clip0_906_305)">
<path d="M11.8639 6.44043C11.8639 7.4785 11.0264 8.32003 9.99323 8.32003C8.96009 8.32003 8.12256 7.4785 8.12256 6.44043C8.12256 5.40236 8.96009 4.56083 9.99323 4.56083C11.0264 4.56083 11.8639 5.40236 11.8639 6.44043ZM9.20339 6.44043C9.20339 6.87873 9.55702 7.23404 9.99323 7.23404C10.4294 7.23404 10.7831 6.87873 10.7831 6.44043C10.7831 6.00213 10.4294 5.64682 9.99323 5.64682C9.55702 5.64682 9.20339 6.00213 9.20339 6.44043Z" fill="#8E919F"/>
<path d="M15.4549 13.8088L17.8292 18.0826H2.17024L4.54458 13.8088H4.7498C5.34811 13.8088 5.83313 13.3238 5.83313 12.7255H4.22586C4.02915 12.7255 3.8479 12.8322 3.75236 13.0041L0.776173 18.3613C0.682967 18.529 0.685498 18.7336 0.782828 18.899C0.880157 19.0644 1.05775 19.166 1.24967 19.166H18.7498C18.9417 19.166 19.1193 19.0644 19.2166 18.899C19.314 18.7336 19.3165 18.529 19.2233 18.3613L16.2471 13.0041C16.1516 12.8322 15.9703 12.7255 15.7736 12.7255H13.2324C14.4093 11.0524 15.5409 8.8156 15.5409 6.37467C15.5409 3.57102 13.0764 0.833008 9.99927 0.833008C6.92216 0.833008 4.4576 3.57102 4.4576 6.37467C4.4576 9.02221 5.78893 11.4296 7.06534 13.138C7.70886 13.9993 8.35145 14.7003 8.83338 15.1864C9.07463 15.4297 9.2764 15.6199 9.41893 15.7502C9.49021 15.8154 9.54675 15.8656 9.58607 15.9001C9.60573 15.9173 9.62109 15.9306 9.63185 15.9399L9.64449 15.9507L9.64816 15.9538L9.64972 15.9551C9.85146 16.1253 10.1468 16.1256 10.3485 15.9554L10.349 15.9518L10.3492 15.9548L10.3504 15.9538L10.354 15.9507L10.3667 15.9399L10.3756 15.9322L10.3985 15.9123L10.4019 15.9094L10.4125 15.9001C10.4518 15.8656 10.5083 15.8154 10.5796 15.7502C10.7221 15.6199 10.9239 15.4297 11.1652 15.1864C11.515 14.8335 11.9496 14.3674 12.4077 13.8088H15.4549ZM5.54093 6.37467C5.54093 4.13573 7.55352 1.91634 9.99927 1.91634C12.445 1.91634 14.4576 4.13573 14.4576 6.37467C14.4576 8.67597 13.2889 10.8519 12.0653 12.4896C11.4589 13.3014 10.8515 13.9641 10.3959 14.4236C10.2447 14.576 10.1106 14.7057 9.99927 14.8107C9.88789 14.7057 9.7538 14.576 9.60266 14.4236C9.14708 13.9641 8.53968 13.3014 7.9332 12.4896C6.7096 10.8519 5.54093 8.67597 5.54093 6.37467Z" fill="#8E919F"/>
</g>
<defs>
<clipPath id="clip0_906_305">
<rect width="20" height="20" fill="white"/>
</clipPath>
</defs>
</svg>
