<svg width="32" height="32" viewBox="0 0 32 32" fill="none" xmlns="http://www.w3.org/2000/svg">
<g opacity="0.67" clip-path="url(#clip0_906_280)">
<path d="M27.916 11.068C27.8953 10.071 27.7046 9.08481 27.352 8.152C27.0645 7.34518 26.5966 6.61463 25.984 6.016C25.3837 5.41119 24.6589 4.94437 23.86 4.648C22.9308 4.29718 21.9489 4.10648 20.956 4.084C19.672 4 19.264 4 16 4C12.76 4 12.4 4 11.068 4.072C10.075 4.09401 9.09303 4.28473 8.164 4.636C7.35933 4.93363 6.63007 5.40479 6.028 6.016C5.41886 6.61509 4.94789 7.33998 4.648 8.14C4.29718 9.06915 4.10648 10.0511 4.084 11.044C4 12.34 4 12.748 4 16C4 19.252 4 19.672 4.072 20.944C4.09265 21.941 4.28339 22.9272 4.636 23.86C4.93905 24.6613 5.41422 25.3863 6.028 25.984C6.62362 26.5917 7.34427 27.0626 8.14 27.364C9.073 27.7159 10.0591 27.9066 11.056 27.928C12.4 28 12.748 28 16 28C19.252 28 19.672 28 20.944 27.928C21.941 27.9073 22.9272 27.7166 23.86 27.364C24.655 27.0546 25.3769 26.5833 25.9801 25.9801C26.5833 25.3769 27.0546 24.655 27.364 23.86C27.7162 22.9271 27.9069 21.941 27.928 20.944C27.928 19.66 28 19.252 28 16C28 12.748 28 12.4 27.916 11.068ZM25.78 20.8C25.7744 21.562 25.6363 22.3173 25.372 23.032C25.1777 23.5494 24.8702 24.0168 24.472 24.4C24.084 24.7981 23.6128 25.1055 23.092 25.3C22.3771 25.5636 21.622 25.7016 20.86 25.708C19.588 25.708 19.216 25.78 16.06 25.78C12.904 25.78 12.46 25.78 11.26 25.708C10.498 25.7024 9.74274 25.5643 9.028 25.3C8.48914 25.1138 8.00048 24.8058 7.6 24.4C7.20188 24.012 6.89453 23.5408 6.7 23.02C6.42524 22.3111 6.27503 21.56 6.256 20.8C6.256 19.528 6.184 19.156 6.184 16C6.184 12.844 6.184 12.4 6.256 11.2C6.25603 10.4218 6.39417 9.64987 6.664 8.92C6.87536 8.41665 7.19492 7.96599 7.6 7.6C7.97122 7.18424 8.43032 6.85632 8.944 6.64C9.66651 6.37367 10.43 6.2356 11.2 6.232C12.46 6.232 12.844 6.16 16 6.16C19.156 6.16 19.6 6.16 20.8 6.232C21.562 6.2374 22.3173 6.37547 23.032 6.64C23.5537 6.83272 24.0253 7.14031 24.412 7.54C24.8101 7.92798 25.1175 8.39924 25.312 8.92C25.6016 9.64635 25.76 10.4183 25.78 11.2C25.78 12.472 25.852 12.844 25.852 16C25.852 19.156 25.84 19.6 25.78 20.8Z" fill="#040B29"/>
<path d="M20.9922 9.59137C20.9922 9.97328 21.1439 10.3395 21.414 10.6096C21.684 10.8797 22.0503 11.0314 22.4322 11.0314C22.8141 11.0314 23.1804 10.8797 23.4504 10.6096C23.7205 10.3395 23.8722 9.97328 23.8722 9.59137C23.8722 9.20946 23.7205 8.84319 23.4504 8.57313C23.1804 8.30308 22.8141 8.15137 22.4322 8.15137C22.0503 8.15137 21.684 8.30308 21.414 8.57313C21.1439 8.84319 20.9922 9.20946 20.9922 9.59137Z" fill="#040B29"/>
<path d="M16.0001 9.83208C14.7812 9.83682 13.591 10.2026 12.5799 10.8832C11.5687 11.5638 10.7819 12.5288 10.3187 13.6563C9.85557 14.7837 9.73684 16.0232 9.97754 17.218C10.2182 18.4129 10.8076 19.5097 11.6711 20.3699C12.5347 21.2301 13.6337 21.8152 14.8296 22.0513C16.0254 22.2873 17.2643 22.1638 18.39 21.6962C19.5156 21.2287 20.4775 20.4381 21.1542 19.4243C21.8309 18.4105 22.1921 17.219 22.1921 16.0001C22.1921 15.1881 22.0318 14.384 21.7203 13.6341C21.4088 12.8842 20.9523 12.2032 20.377 11.6301C19.8017 11.0571 19.119 10.6032 18.3678 10.2947C17.6167 9.98613 16.8121 9.82892 16.0001 9.83208ZM16.0001 19.9961C15.2108 19.9913 14.4406 19.753 13.7866 19.311C13.1326 18.869 12.6242 18.2433 12.3254 17.5127C12.0266 16.7821 11.9509 15.9794 12.1078 15.2059C12.2647 14.4323 12.6472 13.7226 13.207 13.1661C13.7667 12.6097 14.4788 12.2314 15.2533 12.0792C16.0278 11.9269 16.83 12.0075 17.5588 12.3106C18.2876 12.6137 18.9102 13.1259 19.3483 13.7825C19.7863 14.4391 20.0201 15.2108 20.0201 16.0001C20.0201 16.5269 19.9159 17.0485 19.7136 17.5348C19.5113 18.0212 19.2148 18.4628 18.8412 18.8342C18.4676 19.2056 18.0242 19.4994 17.5367 19.6988C17.0491 19.8982 16.5269 19.9992 16.0001 19.9961Z" fill="#040B29"/>
</g>
<defs>
<clipPath id="clip0_906_280">
<rect width="24" height="24" fill="white" transform="translate(4 4)"/>
</clipPath>
</defs>
</svg>
