<svg width="32" height="32" viewBox="0 0 32 32" fill="none" xmlns="http://www.w3.org/2000/svg">
<g opacity="0.67">
<path d="M9.85242 12.165V27.6494H4.69617V12.165H9.85242ZM10.1805 7.38379C10.191 8.14421 9.92794 8.77962 9.39148 9.29004C8.85502 9.80046 8.14929 10.0557 7.27429 10.0557H7.24304C6.38888 10.0557 5.70138 9.80046 5.18054 9.29004C4.65971 8.77962 4.39929 8.14421 4.39929 7.38379C4.39929 6.61296 4.66752 5.97494 5.20398 5.46973C5.74044 4.96452 6.44096 4.71191 7.30554 4.71191C8.17013 4.71191 8.86283 4.96452 9.38367 5.46973C9.9045 5.97493 10.1701 6.61296 10.1805 7.38379ZM28.3993 18.7744V27.6494H23.2587V19.3682C23.2587 18.2744 23.0477 17.4176 22.6259 16.7979C22.204 16.1781 21.5451 15.8682 20.6493 15.8682C19.993 15.8682 19.4436 16.0479 19.0009 16.4072C18.5581 16.7666 18.2274 17.2119 18.0087 17.7432C17.8941 18.0557 17.8368 18.4775 17.8368 19.0088V27.6494H12.6962C12.717 23.4932 12.7274 20.1234 12.7274 17.54C12.7274 14.9567 12.7222 13.415 12.7118 12.915L12.6962 12.165H17.8368V14.415H17.8055C18.0139 14.0817 18.2274 13.79 18.4462 13.54C18.6649 13.29 18.9592 13.0192 19.329 12.7275C19.6988 12.4359 20.1519 12.2093 20.6884 12.0479C21.2248 11.8864 21.8212 11.8057 22.4774 11.8057C24.2587 11.8057 25.691 12.3968 26.7743 13.5791C27.8576 14.7614 28.3993 16.4932 28.3993 18.7744Z" fill="#040B29"/>
</g>
</svg>
